<svg height="24.964" viewBox="0 0 35.021 24.964" width="35.021" xmlns="http://www.w3.org/2000/svg"><g fill="#fff"><path d="m126.5 133.573h-13.793a2.2 2.2 0 0 1 -2.131-1.638l-5.412-15.561a.146.146 0 0 0 -.142-.112h-3.112a1.021 1.021 0 1 1 0-2.041h3.112a2.179 2.179 0 0 1 2.113 1.624l5.411 15.56a.164.164 0 0 0 .16.126h13.794a1.021 1.021 0 0 1 0 2.041z" transform="translate(-96.151 -114.222)"/><path d="m135.876 135.776h-16.264l-4.52-13.04h23.166a2.284 2.284 0 0 1 2.2 2.9l-2.383 8.472a2.292 2.292 0 0 1 -2.199 1.668zm-14.811-2.041h14.811a.244.244 0 0 0 .234-.177l2.383-8.472a.243.243 0 0 0 -.234-.309h-20.3z" transform="translate(-105.522 -119.84)"/><circle cx="18.222" cy="22.832" r="2.131"/><circle cx="28.218" cy="22.832" r="2.131"/><path d="m95.3 133.923h-7.319a1.021 1.021 0 0 1 0-2.041h7.319a1.021 1.021 0 0 1 0 2.041z" transform="translate(-86.96 -125.875)"/><path d="m101.23 151.846h-7.321a1.021 1.021 0 0 1 0-2.041h7.321a1.021 1.021 0 1 1 0 2.041z" transform="translate(-90.871 -137.701)"/><path d="m98.126 142.884h-7.326a1.021 1.021 0 1 1 0-2.041h7.321a1.021 1.021 0 1 1 0 2.041z" transform="translate(-88.823 -131.787)"/></g></svg>